<svg xmlns="http://www.w3.org/2000/svg" viewBox="0 0 1186.1 643.93"><defs><style>.cls-1{fill:#fff;}.cls-2{fill:#2ab878;}.cls-3,.cls-4{fill:#2b3b99;}.cls-4{font-size:45px;font-family:Roboto-Medium, Roboto;font-weight:500;}</style></defs><g id="Blue_Background" data-name="Blue Background"><rect class="cls-1" x="-0.56" y="-1.03" width="1187" height="644"/></g><g id="Text"><rect class="cls-2" x="274.48" y="311.07" width="33" height="102"/><path class="cls-3" d="M551.29,343.86l.57,7.94q7.36-9.21,19.74-9.21,10.92,0,16.25,6.41t5.46,19.17v44.37H575V368.62q0-5.83-2.54-8.48c-1.7-1.75-4.51-2.63-8.45-2.63a12.61,12.61,0,0,0-11.61,6.6v48.43H534V343.86Z"/><path class="cls-3" d="M593.69,412.92h-19.1v-44.3c0-3.78-.82-6.54-2.43-8.22s-4.37-2.52-8.18-2.52a12.31,12.31,0,0,0-11.24,6.33v48.71H533.65V343.49h18l.53,7.35c4.9-5.72,11.43-8.62,19.43-8.62,7.36,0,12.93,2.2,16.54,6.54s5.46,10.86,5.55,19.41Zm-18.35-.75h17.6v-44c-.09-8.37-1.9-14.74-5.38-18.93s-8.83-6.27-16-6.27c-8.09,0-14.64,3-19.45,9.06l-.6.75-.61-8.54H534.4v67.93H552V364l.06-.09A13,13,0,0,1,564,357.13c4,0,7,.93,8.72,2.75s2.64,4.76,2.64,8.74Z"/></g><g id="Registred"><path class="cls-3" d="M363.34,250.82a89.59,89.59,0,0,0-30.23-31.61,80.21,80.21,0,0,0-84.23,0,88.22,88.22,0,0,0-30.25,31.18A83.53,83.53,0,0,0,207.48,293V413.07h36V293A54.35,54.35,0,0,1,250,268.05a52.14,52.14,0,0,1,17.05-18.92,41.91,41.91,0,0,1,24-7,40.29,40.29,0,0,1,23.57,7.18,56.43,56.43,0,0,1,17.35,19A49.14,49.14,0,0,1,338.48,293V413.07h36V293A80.62,80.62,0,0,0,363.34,250.82Z"/><path class="cls-3" d="M414.61,245.86l.57,7.68q7.31-8.94,19.74-8.95,13.26,0,18.22,10.48,7.23-10.48,20.63-10.48,11.18,0,16.63,6.51t5.46,19.58v43.86H477.45V270.75c0-3.9-.76-6.74-2.29-8.54s-4.21-2.7-8.06-2.7q-8.25,0-11.42,7.87l.06,47.16H437.4V270.81c0-4-.79-6.86-2.35-8.63s-4.24-2.67-8-2.67q-7.82,0-11.3,6.47v48.56H397.41V245.86Z"/><path class="cls-3" d="M496.23,314.92H477.07V270.75c0-3.79-.73-6.58-2.19-8.3s-4.06-2.57-7.78-2.57c-5.36,0-9,2.48-11.05,7.57l.07,47.47H437V270.81c0-3.86-.76-6.69-2.25-8.39s-4.09-2.54-7.72-2.54c-5,0-8.68,2.09-10.92,6.2v48.84H397V245.49H415l.52,7.11c4.87-5.56,11.4-8.38,19.44-8.38,8.72,0,14.86,3.4,18.28,10.11,4.86-6.71,11.77-10.11,20.57-10.11,7.53,0,13.22,2.23,16.92,6.64s5.54,11.06,5.54,19.82Zm-18.41-.75h17.66V270.68c0-8.58-1.8-15.09-5.37-19.34S481.06,245,473.77,245c-8.76,0-15.6,3.47-20.32,10.31l-.37.53-.28-.58c-3.22-6.81-9.23-10.26-17.88-10.26-8.14,0-14.68,3-19.45,8.81l-.59.73-.62-8.27H397.78v67.93h17.6V265.89l0-.08c2.39-4.43,6.3-6.68,11.63-6.68,3.86,0,6.64.94,8.28,2.8s2.44,4.83,2.44,8.88v43.36h17.59l-.06-46.86,0-.07c2.17-5.38,6.13-8.11,11.77-8.11,3.95,0,6.76,1,8.35,2.84s2.37,4.81,2.37,8.78Z"/><path class="cls-3" d="M539.61,315.81q-15.11,0-24.6-9.26t-9.49-24.7v-1.77a41.6,41.6,0,0,1,4-18.51A29.52,29.52,0,0,1,520.85,249a31.84,31.84,0,0,1,16.73-4.41q14.08,0,22.18,8.89t8.1,25.2v7.49H524.12A17,17,0,0,0,529.49,297,16.2,16.2,0,0,0,540.82,301q10.59,0,16.56-7.68l9,10.1a27.51,27.51,0,0,1-11.17,9.1A36.68,36.68,0,0,1,539.61,315.81Zm-2.09-56.43a11.49,11.49,0,0,0-8.86,3.7c-2.26,2.47-3.71,6-4.35,10.59h25.52V272.2c-.08-4.08-1.19-7.24-3.3-9.47S541.41,259.38,537.52,259.38Z"/><path class="cls-3" d="M539.61,316.19c-10.13,0-18.49-3.16-24.86-9.38s-9.6-14.62-9.6-25v-1.77a42,42,0,0,1,4-18.67,29.82,29.82,0,0,1,11.47-12.73,32.34,32.34,0,0,1,16.92-4.46c9.46,0,17,3,22.46,9s8.19,14.53,8.19,25.45v7.87H524.55a16.61,16.61,0,0,0,5.19,10.13,15.92,15.92,0,0,0,11.08,4c6.91,0,12.38-2.54,16.27-7.54l.27-.35,9.52,10.65-.18.24a27.89,27.89,0,0,1-11.32,9.23A37.05,37.05,0,0,1,539.61,316.19Zm-2-71.22a31.46,31.46,0,0,0-16.53,4.36,29.1,29.1,0,0,0-11.19,12.41,41.28,41.28,0,0,0-4,18.34v1.77c0,10.13,3.15,18.35,9.38,24.43s14.41,9.16,24.33,9.16a36.42,36.42,0,0,0,15.46-3.24,27.29,27.29,0,0,0,10.85-8.74l-8.52-9.53c-4,4.95-9.59,7.47-16.58,7.47a16.66,16.66,0,0,1-11.59-4.16,17.5,17.5,0,0,1-5.48-11l-.06-.42h43.79v-7.12c0-10.73-2.69-19.12-8-25S546.82,245,537.58,245ZM550.21,274H523.88l.06-.43c.64-4.64,2.14-8.27,4.44-10.78a11.86,11.86,0,0,1,9.14-3.82c4,0,7.1,1.16,9.28,3.46s3.32,5.56,3.41,9.72Zm-25.46-.75h24.71V272.2c-.09-4-1.16-7.06-3.2-9.21s-5-3.23-8.74-3.23a11.12,11.12,0,0,0-8.58,3.58C526.81,265.66,525.4,269,524.75,273.29Z"/><path class="cls-3" d="M577.41,279.7q0-16.06,7.21-25.59t19.71-9.52a21,21,0,0,1,16.56,7.49V217H639.3v97.5H622.73l-.88-7.3a21.59,21.59,0,0,1-17.65,8.57,23.32,23.32,0,0,1-19.46-9.55Q577.41,296.71,577.41,279.7Zm18.35,1.36q0,9.66,3.36,14.81A10.94,10.94,0,0,0,608.9,301q8.51,0,12-7.18V266.69q-3.42-7.17-11.87-7.18Q595.76,259.51,595.76,281.06Z"/><path class="cls-3" d="M604.2,316.19a23.74,23.74,0,0,1-19.75-9.7c-4.92-6.41-7.41-15.42-7.41-26.79,0-10.74,2.45-19.43,7.28-25.81s11.58-9.67,20-9.67a21.45,21.45,0,0,1,16.19,6.89V216.67h19.16v98.25H622.4l-.82-6.76A21.94,21.94,0,0,1,604.2,316.19Zm.13-71.22c-8.18,0-14.71,3.15-19.41,9.37s-7.13,14.78-7.13,25.36c0,11.2,2.44,20.06,7.25,26.33a23.05,23.05,0,0,0,19.16,9.41A21.32,21.32,0,0,0,621.55,307l.56-.7,1,7.86h15.86V217.42H621.27v35.66l-.66-.75A20.77,20.77,0,0,0,604.33,245Zm4.57,56.43a11.35,11.35,0,0,1-10.09-5.32c-2.28-3.48-3.43-8.53-3.43-15,0-14.55,4.59-21.93,13.64-21.93,5.76,0,9.87,2.49,12.21,7.4l0,.16v27.24l0,.07C618.85,298.91,614.7,301.4,608.9,301.4Zm.12-41.52c-8.55,0-12.89,7.13-12.89,21.18,0,6.34,1.11,11.26,3.3,14.61a10.67,10.67,0,0,0,9.47,5c5.53,0,9.33-2.26,11.62-6.9v-27C618.28,262.14,614.51,259.88,609,259.88Z"/><path class="cls-3" d="M425,398a12,12,0,0,0,8.25-2.79,9.76,9.76,0,0,0,3.3-7.43h17.2a23.54,23.54,0,0,1-3.8,12.79,25.14,25.14,0,0,1-10.26,9,32.14,32.14,0,0,1-14.37,3.2q-14.73,0-23.24-9.36t-8.5-25.87v-1.2q0-15.87,8.44-25.33t23.17-9.46q12.88,0,20.66,7.34t7.9,19.51h-17.2a12.58,12.58,0,0,0-3.3-8.71,11,11,0,0,0-8.38-3.35q-6.4,0-9.68,4.68t-3.27,15.16v1.91q0,10.61,3.24,15.25T425,398Z"/><path class="cls-3" d="M425.29,413.19c-9.89,0-17.8-3.19-23.51-9.49s-8.61-15.07-8.61-26.12v-1.2c0-10.63,2.88-19.23,8.54-25.58s13.57-9.58,23.45-9.58c8.65,0,15.69,2.5,20.92,7.43s7.93,11.6,8,19.79v.38H436.16v-.37A12.28,12.28,0,0,0,433,360a10.71,10.71,0,0,0-8.11-3.23c-4.12,0-7.27,1.52-9.37,4.51s-3.2,8.07-3.2,15v1.91c0,7,1.07,12,3.17,15s5.28,4.48,9.53,4.48a11.7,11.7,0,0,0,8-2.7,9.45,9.45,0,0,0,3.18-7.16v-.36H454.1v.38a24,24,0,0,1-3.87,13,25.53,25.53,0,0,1-10.4,9.14A32.5,32.5,0,0,1,425.29,413.19ZM425.16,342c-9.66,0-17.36,3.14-22.89,9.33s-8.35,14.64-8.35,25.08v1.2c0,10.86,2.83,19.48,8.41,25.62s13.29,9.24,23,9.24a31.9,31.9,0,0,0,14.21-3.17,24.84,24.84,0,0,0,10.1-8.88,23.16,23.16,0,0,0,3.74-12.21H436.88a10.09,10.09,0,0,1-3.41,7.33,12.44,12.44,0,0,1-8.5,2.89c-4.51,0-7.92-1.62-10.15-4.8s-3.3-8.35-3.3-15.47v-1.91c0-7,1.12-12.21,3.33-15.38s5.61-4.83,10-4.83a11.42,11.42,0,0,1,8.65,3.47,12.91,12.91,0,0,1,3.4,8.59h16.45c-.16-7.81-2.77-14.16-7.77-18.87S433.61,342,425.16,342Z"/><path class="cls-3" d="M460.69,376.57a40.66,40.66,0,0,1,3.94-18.22A28.8,28.8,0,0,1,476,346a33,33,0,0,1,17.17-4.38q13.9,0,22.69,8.51t9.81,23.1l.13,4.7q0,15.81-8.83,25.36t-23.67,9.55q-14.86,0-23.71-9.52t-8.86-25.9Zm18.35,1.3q0,9.79,3.68,15a13.24,13.24,0,0,0,20.95.07q3.74-5.13,3.74-16.37,0-9.6-3.74-14.88a12.18,12.18,0,0,0-10.54-5.28,12,12,0,0,0-10.41,5.25Q479,366.88,479,377.87Z"/><path class="cls-3" d="M493.26,413.19c-10,0-18-3.25-24-9.64s-8.95-15.19-8.95-26.16v-.82a41.28,41.28,0,0,1,4-18.39,29.28,29.28,0,0,1,11.48-12.53,33.55,33.55,0,0,1,17.36-4.43c9.32,0,17.05,2.9,23,8.61s9.24,13.56,9.92,23.35l.13,4.71c0,10.6-3,19.21-8.92,25.62S503.22,413.19,493.26,413.19ZM493.13,342a32.76,32.76,0,0,0-17,4.33A28.56,28.56,0,0,0,465,358.52a40.58,40.58,0,0,0-3.89,18.05v.82c0,10.77,2.94,19.4,8.75,25.65s13.69,9.4,23.44,9.4,17.62-3.18,23.4-9.43,8.72-14.72,8.72-25.11l-.13-4.69c-.66-9.57-3.93-17.27-9.69-22.84S502.25,342,493.13,342Zm.13,56.43a12.57,12.57,0,0,1-10.85-5.34c-2.49-3.5-3.75-8.61-3.75-15.19,0-7.38,1.26-12.91,3.75-16.46a12.4,12.4,0,0,1,10.72-5.4A12.59,12.59,0,0,1,504,361.44c2.53,3.57,3.82,8.65,3.82,15.1,0,7.54-1.29,13.12-3.82,16.59A12.58,12.58,0,0,1,493.26,398.4Zm-.13-41.64A11.68,11.68,0,0,0,483,361.84c-2.39,3.42-3.61,8.81-3.61,16,0,6.42,1.22,11.38,3.61,14.75a12.84,12.84,0,0,0,20.34.06c2.44-3.33,3.68-8.76,3.68-16.14,0-6.29-1.24-11.22-3.68-14.66A11.86,11.86,0,0,0,493.13,356.76Z"/><path class="cls-3" d="M643.11,392.56a5.92,5.92,0,0,0-3.33-5.3q-3.33-1.93-10.7-3.46-24.5-5.13-24.5-20.82,0-9.14,7.59-15.26T632,341.59q13.08,0,20.92,6.16a19.43,19.43,0,0,1,7.84,16H642.41a8.88,8.88,0,0,0-2.54-6.51c-1.69-1.71-4.34-2.57-7.93-2.57q-4.63,0-7.18,2.09a6.63,6.63,0,0,0-2.53,5.34,5.63,5.63,0,0,0,2.88,4.91q2.89,1.88,9.75,3.24a79.84,79.84,0,0,1,11.55,3.08q14.54,5.34,14.54,18.47,0,9.4-8.06,15.21t-20.83,5.8a36.32,36.32,0,0,1-15.32-3.07,25.75,25.75,0,0,1-10.51-8.45,19.58,19.58,0,0,1-3.81-11.58h17.39a9.59,9.59,0,0,0,3.62,7.49q3.36,2.6,9,2.6,5.26,0,8-2A6.22,6.22,0,0,0,643.11,392.56Z"/><path class="cls-3" d="M632.06,413.19a36.92,36.92,0,0,1-15.48-3.11,26.24,26.24,0,0,1-10.66-8.57,20.06,20.06,0,0,1-3.87-11.8v-.38h18.12l0,.36a9.24,9.24,0,0,0,3.47,7.21c2.17,1.68,5.12,2.53,8.79,2.53,3.41,0,6-.65,7.74-1.93a5.82,5.82,0,0,0,2.54-4.94,5.51,5.51,0,0,0-3.14-5c-2.18-1.27-5.74-2.41-10.58-3.42-16.46-3.45-24.81-10.58-24.81-21.19,0-6.18,2.6-11.41,7.73-15.55s11.85-6.21,20.07-6.21c8.76,0,15.88,2.1,21.15,6.24a19.83,19.83,0,0,1,8,16.29v.37H642v-.37a8.59,8.59,0,0,0-2.43-6.25c-1.62-1.63-4.2-2.46-7.67-2.46-3,0-5.32.68-6.94,2a6.24,6.24,0,0,0-2.4,5.05,5.25,5.25,0,0,0,2.72,4.6c1.87,1.22,5.11,2.29,9.61,3.18a82,82,0,0,1,11.61,3.1c9.81,3.6,14.78,9.93,14.78,18.82,0,6.36-2.76,11.58-8.22,15.51S640.61,413.19,632.06,413.19ZM602.8,390.08a19.4,19.4,0,0,0,3.74,11,25.39,25.39,0,0,0,10.35,8.31,36.14,36.14,0,0,0,15.17,3.05c8.39,0,15.32-1.93,20.61-5.74s7.9-8.79,7.9-14.9c0-8.54-4.81-14.64-14.29-18.12a78.87,78.87,0,0,0-11.5-3.06c-4.59-.91-7.91-2-9.87-3.29a6,6,0,0,1-3.06-5.23,7,7,0,0,1,2.68-5.63c1.75-1.44,4.24-2.18,7.41-2.18,3.68,0,6.44.91,8.2,2.69a9.2,9.2,0,0,1,2.64,6.39h17.6a19.1,19.1,0,0,0-7.69-15.32c-5.14-4-12.1-6.08-20.69-6.08-8,0-14.64,2-19.6,6S605,357,605,363c0,10.21,8.15,17.09,24.21,20.46,4.92,1,8.56,2.2,10.81,3.5a6.29,6.29,0,0,1,3.51,5.62,6.59,6.59,0,0,1-2.84,5.54c-1.86,1.38-4.62,2.08-8.19,2.08-3.84,0-7-.91-9.25-2.68a9.88,9.88,0,0,1-3.74-7.42Z"/><path class="cls-3" d="M712.59,404.56q-6.8,8.25-18.79,8.25-11.06,0-16.86-6.34T671,387.87v-45h18.34v44.42q0,10.74,9.78,10.74,9.33,0,12.82-6.48V342.86h18.41v68.68H713.09Z"/><path class="cls-3" d="M693.8,413.19c-7.44,0-13.21-2.18-17.13-6.47s-5.95-10.62-6-18.85V342.49h19.1v44.79c0,7,3.07,10.37,9.4,10.37,6,0,10.19-2.09,12.45-6.2v-49h19.15v69.43h-18l-.46-6.42C707.74,410.6,701.53,413.19,693.8,413.19Zm-22.42-69.95v44.63c.09,8,2,14.2,5.84,18.34s9.36,6.23,16.58,6.23c7.84,0,14.06-2.73,18.5-8.12l.59-.72.55,7.57H730V343.24H712.33v48.4l-.05.08c-2.39,4.43-6.81,6.68-13.15,6.68-6.74,0-10.15-3.74-10.15-11.12v-44Z"/><path class="cls-3" d="M762.41,412.54H744V315h18.41Z"/><path class="cls-3" d="M762.78,412.92H743.62V314.67h19.16Zm-18.41-.75H762V315.42H744.37Z"/><path class="cls-3" d="M798.83,326v16.88h11.74v13.46H798.83V390.6c0,2.54.48,4.36,1.46,5.46s2.83,1.65,5.58,1.65a29,29,0,0,0,5.4-.45v13.9a37.79,37.79,0,0,1-11.11,1.65q-19.29,0-19.68-19.48v-37h-10V342.86h10V326Z"/><path class="cls-3" d="M800.16,413.19c-13,0-19.79-6.68-20-19.86V356.69h-10v-14.2h10V325.6H799.2v16.89H811v14.2H799.2V390.6c0,2.43.46,4.18,1.37,5.21s2.68,1.52,5.3,1.52a29,29,0,0,0,5.33-.44l.44-.08v14.63l-.26.08A38.21,38.21,0,0,1,800.16,413.19Zm-29.33-57.25h10v37.39c.25,12.85,6.56,19.11,19.3,19.11a37.24,37.24,0,0,0,10.73-1.56V397.71a30.34,30.34,0,0,1-5,.37c-2.89,0-4.81-.58-5.86-1.78s-1.56-3.08-1.56-5.7V355.94H810.2v-12.7H798.45V326.35H780.86v16.89h-10Z"/><path class="cls-3" d="M821,326.09a9,9,0,0,1,2.76-6.79,11.9,11.9,0,0,1,15,0,9.69,9.69,0,0,1,0,13.64,11.76,11.76,0,0,1-14.92,0A9,9,0,0,1,821,326.09Zm19.49,86.45H822.09V343.86H840.5Z"/><path class="cls-3" d="M840.88,412.92H821.72V343.49h19.16Zm-18.41-.75h17.66V344.24H822.47ZM831.3,336a10.87,10.87,0,0,1-7.72-2.77,10.12,10.12,0,0,1-.07-14.19,12.28,12.28,0,0,1,15.54,0,10.06,10.06,0,0,1,0,14.19A10.84,10.84,0,0,1,831.3,336Zm0-19a10,10,0,0,0-7.26,2.56,9.34,9.34,0,0,0,.06,13.1,11.37,11.37,0,0,0,14.4,0,9.31,9.31,0,0,0,0-13.1A10.09,10.09,0,0,0,831.3,317Z"/><path class="cls-3" d="M869.84,343.86l.57,7.94q7.37-9.21,19.75-9.21,10.9,0,16.25,6.41t5.45,19.17v44.37H893.52V368.62q0-5.83-2.54-8.48c-1.69-1.75-4.51-2.63-8.44-2.63a12.63,12.63,0,0,0-11.62,6.6v48.43H852.58V343.86Z"/><path class="cls-3" d="M912.24,412.92h-19.1v-44.3c0-3.78-.81-6.54-2.43-8.22s-4.36-2.52-8.17-2.52a12.31,12.31,0,0,0-11.24,6.33v48.71H852.2V343.49h18l.53,7.35c4.9-5.72,11.43-8.62,19.44-8.62,7.36,0,12.92,2.2,16.53,6.54s5.46,10.86,5.55,19.41Zm-18.35-.75h17.6v-44c-.08-8.37-1.89-14.74-5.37-18.93s-8.84-6.27-16-6.27c-8.1,0-14.64,3-19.45,9.06l-.6.75-.62-8.54H853v67.93h17.6V364l.05-.09a13,13,0,0,1,11.94-6.79c4,0,7,.93,8.71,2.75s2.64,4.76,2.64,8.74Z"/><path class="cls-3" d="M919.8,376.7q0-15.81,7.52-25.46t20.28-9.65q11.31,0,17.59,7.75l.76-6.48h16.63v66.4a29.37,29.37,0,0,1-4.1,15.68A26.26,26.26,0,0,1,967,435.09a40.46,40.46,0,0,1-17.39,3.5,37.7,37.7,0,0,1-14.73-3A26.06,26.06,0,0,1,924,427.79l8.12-11.17a21.5,21.5,0,0,0,16.64,7.68q7.29,0,11.36-3.9t4.06-11.08v-3.68q-6.34,7.17-16.69,7.17a24.29,24.29,0,0,1-20-9.68q-7.65-9.67-7.65-25.67Zm18.34,1.36q0,9.35,3.75,14.66a11.92,11.92,0,0,0,10.28,5.3q8.39,0,12-6.29V362.8q-3.67-6.29-11.87-6.29a12,12,0,0,0-10.38,5.4Q938.14,367.32,938.14,378.06Z"/><path class="cls-3" d="M949.57,439a38.22,38.22,0,0,1-14.87-3,26.74,26.74,0,0,1-11-7.9l-.17-.22L932.08,416l.31.34a21.22,21.22,0,0,0,16.36,7.56c4.74,0,8.47-1.28,11.1-3.8s3.95-6.16,3.95-10.81V406.6c-4.21,4.37-9.7,6.59-16.32,6.59a24.77,24.77,0,0,1-20.32-9.82c-5.13-6.49-7.73-15.21-7.73-25.91v-.76c0-10.58,2.55-19.22,7.6-25.69s12-9.79,20.57-9.79c7.29,0,13.11,2.42,17.31,7.21l.7-5.94H983v66.77a29.78,29.78,0,0,1-4.15,15.87,26.71,26.71,0,0,1-11.68,10.3A41.05,41.05,0,0,1,949.57,439Zm-25.11-11.17A26.1,26.1,0,0,0,935,435.22a37.3,37.3,0,0,0,14.58,3,40.17,40.17,0,0,0,17.23-3.46,26,26,0,0,0,11.37-10,29.1,29.1,0,0,0,4-15.48v-66H966.28l-.83,7-.56-.69c-4.09-5-9.91-7.6-17.29-7.6-8.34,0-15.07,3.2-20,9.5s-7.44,14.82-7.44,25.23v.76c0,10.53,2.54,19.09,7.56,25.44a24.05,24.05,0,0,0,19.74,9.54c6.75,0,12.27-2.37,16.41-7.05l.66-.74v4.67c0,4.87-1.41,8.69-4.18,11.35s-6.68,4-11.62,4a21.86,21.86,0,0,1-16.6-7.46Zm27.71-29.39a12.33,12.33,0,0,1-10.59-5.47c-2.53-3.58-3.81-8.59-3.81-14.87,0-7.21,1.29-12.71,3.84-16.36a12.41,12.41,0,0,1,10.69-5.57c5.58,0,9.68,2.18,12.19,6.48l.06.09v29.13l0,.09C962,396.22,957.88,398.4,952.17,398.4Zm.13-41.52a11.68,11.68,0,0,0-10.07,5.25c-2.46,3.52-3.71,8.88-3.71,15.93,0,6.12,1.24,11,3.68,14.44a11.59,11.59,0,0,0,10,5.15c5.38,0,9.29-2,11.63-6V362.91C961.42,358.91,957.55,356.88,952.3,356.88Z"/><text class="cls-4" transform="translate(963.38 228.68)">®</text></g></svg>